<svg width="24" height="24" viewBox="0 0 24 24" fill="none" xmlns="http://www.w3.org/2000/svg">
<path d="M16.7037 9.01106C16.7107 9.01102 16.7179 9.01101 16.725 9.01101C19.086 9.01101 21 11.0294 21 13.5193C21 15.8398 19.3375 17.7508 17.2 18M16.7037 9.01106C16.7178 8.84606 16.725 8.67896 16.725 8.51009C16.725 5.46695 14.3857 3 11.5 3C8.76708 3 6.52421 5.21267 6.2944 8.03192M16.7037 9.01106C16.6065 10.1476 16.1822 11.1846 15.5307 12.0165M6.2944 8.03192C3.88478 8.27373 2 10.4139 2 13.0183C2 15.4417 3.63187 17.4632 5.8 17.9273M6.2944 8.03192C6.44435 8.01687 6.59632 8.00917 6.75 8.00917C7.81953 8.00917 8.8065 8.38194 9.60047 9.01101" stroke="#8F8881" stroke-width="1.5" stroke-linecap="round" stroke-linejoin="round"/>
<path d="M12 13V21M12 13C11.2998 13 9.99153 14.9943 9.5 15.5M12 13C12.7002 13 14.0085 14.9943 14.5 15.5" stroke="#8F8881" stroke-width="1.5" stroke-linecap="round" stroke-linejoin="round"/>
</svg>
